#Comment line ignore any data following # character 
#Hierarchical Translation and Rotation (.htr) file 
[Header]	
#Header keywords are followed by a single value 
FileType HTR		#Single word string
DataType HTRS		#Translation followed by rotation and scale data
FileVersion 1		#integer
NumSegments 84		#integer
NumFrames 2		#integer
DataFrameRate 30		#integer, data frame rate in this file
EulerRotationOrder ZYX
CalibrationUnits mm
RotationUnits Degrees
GlobalAxisofGravity Y
BoneLengthAxis Y
ScaleFactor 1.00
[SegmentNames&Hierarchy]
#CHILD	PARENT
MASTER GLOBAL
root MASTER
chest root
L_mid_tent01 root
R_mid_tent01 root
spine01 root
Bip01_Neck chest
L_humerus chest
R_humerus chest
weapon_bone chest
Bip01_Head Bip01_Neck
eye_left_bone Bip01_Head
eye_right_bone Bip01_Head
L_forearm L_humerus
L_front_hand L_forearm
L_weapon_bone L_forearm
L_front_hand01_01 L_front_hand
L_front_hand02_01 L_front_hand
L_front_hand03_01 L_front_hand
L_front_hand01_02 L_front_hand01_01
L_front_hand02_02 L_front_hand02_01
L_front_hand03_02 L_front_hand03_01
R_forearm R_humerus
R_front_hand R_forearm
R_weapon_bone R_forearm
R_front_hand01_01 R_front_hand
R_front_hand02_01 R_front_hand
R_front_hand03_01 R_front_hand
R_front_hand01_02 R_front_hand01_01
R_front_hand02_02 R_front_hand02_01
R_front_hand03_02 R_front_hand03_01
null_rope01_connect L_mid_tent01
Rope1_Seg01 null_rope01_connect
Rope1_Seg02 Rope1_Seg01
Rope1_Seg03 Rope1_Seg02
Rope1_Seg04 Rope1_Seg03
Rope1_Seg05 Rope1_Seg04
Rope1_Seg06 Rope1_Seg05
Rope1_Seg07 Rope1_Seg06
Rope1_Seg09 Rope1_Seg07
L_mid_hand01 Rope1_Seg09
L_mid_hand02 Rope1_Seg09
L_mid_hand03 Rope1_Seg09
null_rope02_connect R_mid_tent01
Rope2_Seg01 null_rope02_connect
Rope2_Seg02 Rope2_Seg01
Rope2_Seg03 Rope2_Seg02
Rope2_Seg04 Rope2_Seg03
Rope2_Seg05 Rope2_Seg04
Rope2_Seg06 Rope2_Seg05
Rope2_Seg07 Rope2_Seg06
Rope2_Seg09 Rope2_Seg07
R_mid_hand01 Rope2_Seg09
R_mid_hand02 Rope2_Seg09
R_mid_hand03 Rope2_Seg09
spine02 spine01
spine03 spine02
pelvis spine03
null_rope03_connect pelvis
null_rope04_connect pelvis
Rope3_Seg01 null_rope03_connect
Rope3_Seg02 Rope3_Seg01
Rope3_Seg03 Rope3_Seg02
Rope3_Seg04 Rope3_Seg03
Rope3_Seg05 Rope3_Seg04
Rope3_Seg06 Rope3_Seg05
Rope3_Seg07 Rope3_Seg06
Rope3_Seg08 Rope3_Seg07
Rope3_Seg09 Rope3_Seg08
R_rear_hand01 Rope3_Seg09
R_rear_hand02 Rope3_Seg09
R_rear_hand03 Rope3_Seg09
Rope4_Seg01 null_rope04_connect
Rope4_Seg02 Rope4_Seg01
Rope4_Seg03 Rope4_Seg02
Rope4_Seg04 Rope4_Seg03
Rope4_Seg05 Rope4_Seg04
Rope4_Seg06 Rope4_Seg05
Rope4_Seg07 Rope4_Seg06
Rope4_Seg08 Rope4_Seg07
Rope4_Seg09 Rope4_Seg08
L_rear_hand01 Rope4_Seg09
L_rear_hand02 Rope4_Seg09
L_rear_hand03 Rope4_Seg09
[BasePosition]
#SegmentName Tx, Ty, Tz, Rx, Ry, Rz, BoneLength
MASTER 0.000000 0.000000 0.000000 -90.000000 0.000000 0.000000 10.000000 
root 0.000000 0.000000 0.000000 0.000000 0.000000 0.000000 10.000000 
chest 0.000000 0.000000 0.000000 0.000000 0.000000 0.000000 10.000000 
L_mid_tent01 0.000000 0.000000 0.000000 0.000000 0.000000 0.000000 10.000000 
R_mid_tent01 0.000000 0.000000 0.000000 0.000000 0.000000 0.000000 10.000000 
spine01 0.000000 0.000000 0.000000 0.000000 0.000000 0.000000 10.000000 
Bip01_Neck 0.000000 0.000000 0.000000 0.000000 0.000000 0.000000 10.000000 
L_humerus 0.000000 0.000000 0.000000 0.000000 0.000000 0.000000 10.000000 
R_humerus 0.000000 0.000000 0.000000 0.000000 0.000000 0.000000 10.000000 
weapon_bone 0.000000 0.000000 0.000000 0.000000 0.000000 0.000000 10.000000 
Bip01_Head 0.000000 0.000000 0.000000 0.000000 0.000000 0.000000 10.000000 
eye_left_bone 0.000000 0.000000 0.000000 0.000000 0.000000 0.000000 10.000000 
eye_right_bone 0.000000 0.000000 0.000000 0.000000 0.000000 0.000000 10.000000 
L_forearm 0.000000 0.000000 0.000000 0.000000 0.000000 0.000000 10.000000 
L_front_hand 0.000000 0.000000 0.000000 0.000000 0.000000 0.000000 10.000000 
L_weapon_bone 0.000000 0.000000 0.000000 0.000000 0.000000 0.000000 10.000000 
L_front_hand01_01 0.000000 0.000000 0.000000 0.000000 0.000000 0.000000 10.000000 
L_front_hand02_01 0.000000 0.000000 0.000000 0.000000 0.000000 0.000000 10.000000 
L_front_hand03_01 0.000000 0.000000 0.000000 0.000000 0.000000 0.000000 10.000000 
L_front_hand01_02 0.000000 0.000000 0.000000 0.000000 0.000000 0.000000 10.000000 
L_front_hand02_02 0.000000 0.000000 0.000000 0.000000 0.000000 0.000000 10.000000 
L_front_hand03_02 0.000000 0.000000 0.000000 0.000000 0.000000 0.000000 10.000000 
R_forearm 0.000000 0.000000 0.000000 0.000000 0.000000 0.000000 10.000000 
R_front_hand 0.000000 0.000000 0.000000 0.000000 0.000000 0.000000 10.000000 
R_weapon_bone 0.000000 0.000000 0.000000 0.000000 0.000000 0.000000 10.000000 
R_front_hand01_01 0.000000 0.000000 0.000000 0.000000 0.000000 0.000000 10.000000 
R_front_hand02_01 0.000000 0.000000 0.000000 0.000000 0.000000 0.000000 10.000000 
R_front_hand03_01 0.000000 0.000000 0.000000 0.000000 0.000000 0.000000 10.000000 
R_front_hand01_02 0.000000 0.000000 0.000000 0.000000 0.000000 0.000000 10.000000 
R_front_hand02_02 0.000000 0.000000 0.000000 0.000000 0.000000 0.000000 10.000000 
R_front_hand03_02 0.000000 0.000000 0.000000 0.000000 0.000000 0.000000 10.000000 
null_rope01_connect 0.000000 0.000000 0.000000 0.000000 0.000000 0.000000 10.000000 
Rope1_Seg01 0.000000 0.000000 0.000000 0.000000 0.000000 0.000000 10.000000 
Rope1_Seg02 0.000000 0.000000 0.000000 0.000000 0.000000 0.000000 10.000000 
Rope1_Seg03 0.000000 0.000000 0.000000 0.000000 0.000000 0.000000 10.000000 
Rope1_Seg04 0.000000 0.000000 0.000000 0.000000 0.000000 0.000000 10.000000 
Rope1_Seg05 0.000000 0.000000 0.000000 0.000000 0.000000 0.000000 10.000000 
Rope1_Seg06 0.000000 0.000000 0.000000 0.000000 0.000000 0.000000 10.000000 
Rope1_Seg07 0.000000 0.000000 0.000000 0.000000 0.000000 0.000000 10.000000 
Rope1_Seg09 0.000000 0.000000 0.000000 0.000000 0.000000 0.000000 10.000000 
L_mid_hand01 0.000000 0.000000 0.000000 0.000000 0.000000 0.000000 10.000000 
L_mid_hand02 0.000000 0.000000 0.000000 0.000000 0.000000 0.000000 10.000000 
L_mid_hand03 0.000000 0.000000 0.000000 0.000000 0.000000 0.000000 10.000000 
null_rope02_connect 0.000000 0.000000 0.000000 0.000000 0.000000 0.000000 10.000000 
Rope2_Seg01 0.000000 0.000000 0.000000 0.000000 0.000000 0.000000 10.000000 
Rope2_Seg02 0.000000 0.000000 0.000000 0.000000 0.000000 0.000000 10.000000 
Rope2_Seg03 0.000000 0.000000 0.000000 0.000000 0.000000 0.000000 10.000000 
Rope2_Seg04 0.000000 0.000000 0.000000 0.000000 0.000000 0.000000 10.000000 
Rope2_Seg05 0.000000 0.000000 0.000000 0.000000 0.000000 0.000000 10.000000 
Rope2_Seg06 0.000000 0.000000 0.000000 0.000000 0.000000 0.000000 10.000000 
Rope2_Seg07 0.000000 0.000000 0.000000 0.000000 0.000000 0.000000 10.000000 
Rope2_Seg09 0.000000 0.000000 0.000000 0.000000 0.000000 0.000000 10.000000 
R_mid_hand01 0.000000 0.000000 0.000000 0.000000 0.000000 0.000000 10.000000 
R_mid_hand02 0.000000 0.000000 0.000000 0.000000 0.000000 0.000000 10.000000 
R_mid_hand03 0.000000 0.000000 0.000000 0.000000 0.000000 0.000000 10.000000 
spine02 0.000000 0.000000 0.000000 0.000000 0.000000 0.000000 10.000000 
spine03 0.000000 0.000000 0.000000 0.000000 0.000000 0.000000 10.000000 
pelvis 0.000000 0.000000 0.000000 0.000000 0.000000 0.000000 10.000000 
null_rope03_connect 0.000000 0.000000 0.000000 0.000000 0.000000 0.000000 10.000000 
null_rope04_connect 0.000000 0.000000 0.000000 0.000000 0.000000 0.000000 10.000000 
Rope3_Seg01 0.000000 0.000000 0.000000 0.000000 0.000000 0.000000 10.000000 
Rope3_Seg02 0.000000 0.000000 0.000000 0.000000 0.000000 0.000000 10.000000 
Rope3_Seg03 0.000000 0.000000 0.000000 0.000000 0.000000 0.000000 10.000000 
Rope3_Seg04 0.000000 0.000000 0.000000 0.000000 0.000000 0.000000 10.000000 
Rope3_Seg05 0.000000 0.000000 0.000000 0.000000 0.000000 0.000000 10.000000 
Rope3_Seg06 0.000000 0.000000 0.000000 0.000000 0.000000 0.000000 10.000000 
Rope3_Seg07 0.000000 0.000000 0.000000 0.000000 0.000000 0.000000 10.000000 
Rope3_Seg08 0.000000 0.000000 0.000000 0.000000 0.000000 0.000000 10.000000 
Rope3_Seg09 0.000000 0.000000 0.000000 0.000000 0.000000 0.000000 10.000000 
R_rear_hand01 0.000000 0.000000 0.000000 0.000000 0.000000 0.000000 10.000000 
R_rear_hand02 0.000000 0.000000 0.000000 0.000000 0.000000 0.000000 10.000000 
R_rear_hand03 0.000000 0.000000 0.000000 0.000000 0.000000 0.000000 10.000000 
Rope4_Seg01 0.000000 0.000000 0.000000 0.000000 0.000000 0.000000 10.000000 
Rope4_Seg02 0.000000 0.000000 0.000000 0.000000 0.000000 0.000000 10.000000 
Rope4_Seg03 0.000000 0.000000 0.000000 0.000000 0.000000 0.000000 10.000000 
Rope4_Seg04 0.000000 0.000000 0.000000 0.000000 0.000000 0.000000 10.000000 
Rope4_Seg05 0.000000 0.000000 0.000000 0.000000 0.000000 0.000000 10.000000 
Rope4_Seg06 0.000000 0.000000 0.000000 0.000000 0.000000 0.000000 10.000000 
Rope4_Seg07 0.000000 0.000000 0.000000 0.000000 0.000000 0.000000 10.000000 
Rope4_Seg08 0.000000 0.000000 0.000000 0.000000 0.000000 0.000000 10.000000 
Rope4_Seg09 0.000000 0.000000 0.000000 0.000000 0.000000 0.000000 10.000000 
L_rear_hand01 0.000000 0.000000 0.000000 0.000000 0.000000 0.000000 10.000000 
L_rear_hand02 0.000000 0.000000 0.000000 0.000000 0.000000 0.000000 10.000000 
L_rear_hand03 0.000000 0.000000 0.000000 0.000000 0.000000 0.000000 10.000000 
#Beginning of Data. Separated by tabs
#Fr	Tx	Ty	Tz	Rx	Ry	Rz	SF
[MASTER]
31 -0.001128 7539.338379 14.142534 0.001660 0.001660 0.001660 7539.351563
32 -0.001160 7750.519531 17.046808 0.001660 0.001660 0.001660 7750.538574
[root]
31 -141.555267 359.458588 1815.584717 -104.585999 -29.915417 -39.844196 1856.231689
32 -126.622574 311.451416 1824.028320 -104.347298 -31.023211 -44.044819 1854.754639
[chest]
31 -84.512650 -34.090519 0.000000 -4.883928 1.981831 -178.071045 91.129311
32 -84.512650 -34.090519 0.000000 -5.264975 1.959772 -179.230194 91.129311
[L_mid_tent01]
31 27.299252 22.179161 -249.918762 -22.602844 44.056183 20.789787 252.381744
32 27.299244 22.179218 -249.918793 -22.599695 40.481903 19.799316 252.381790
[R_mid_tent01]
31 23.228794 24.509907 226.238495 176.355820 -12.856401 58.960804 228.744751
32 23.228794 24.509907 226.238495 178.872055 -13.230497 53.851063 228.744751
[spine01]
31 -0.361383 -0.195265 0.000000 0.143510 0.060023 21.154209 0.410763
32 -0.361383 -0.195265 0.000000 0.120165 0.050976 21.280512 0.410763
[Bip01_Neck]
31 165.484543 71.581718 0.000119 175.896118 1.177290 24.871183 180.302734
32 165.484543 71.581718 0.000119 175.896118 1.177290 24.871183 180.302734
[L_humerus]
31 -13.983130 -135.272980 -120.471481 -7.402258 75.737679 82.659859 181.680161
32 -13.983130 -135.272980 -120.471481 -7.015355 74.738716 83.045364 181.680161
[R_humerus]
31 -13.983309 -135.273102 125.287651 -151.401703 -64.595787 -126.359894 184.909012
32 -13.983309 -135.273102 125.287651 -144.540512 -65.539551 -132.135056 184.909012
[weapon_bone]
31 235.964890 -300.705902 0.000000 0.000000 -89.951546 -128.212341 382.234833
32 235.964890 -300.705902 0.000000 0.000000 -89.951546 -128.212341 382.234833
[Bip01_Head]
31 233.770126 208.614502 -10.778808 -45.957504 13.110875 -55.483646 313.503845
32 234.934692 204.407349 -10.560913 -43.047775 12.707056 -55.871723 311.589813
[eye_left_bone]
31 -24.626970 125.451866 -64.772606 0.000000 -90.000000 -99.840431 143.318359
32 -24.626970 125.451866 -64.772606 0.000000 -90.000000 -99.840431 143.318359
[eye_right_bone]
31 -24.626970 125.451866 64.327362 0.000000 -89.960434 80.159386 143.117676
32 -24.626970 125.451866 64.327362 0.000000 -89.960434 80.159386 143.117676
[L_forearm]
31 322.776093 0.000000 -0.000119 0.000351 -0.002321 -107.198280 322.776093
32 322.776093 0.000000 -0.000119 0.000357 -0.002320 -107.487610 322.776093
[L_front_hand]
31 241.149185 -0.042021 -3.300071 -178.667953 -1.835447 -27.422350 241.171753
32 241.149185 -0.042021 -3.300071 -178.667953 -1.835447 -27.422342 241.171753
[L_weapon_bone]
31 156.183838 0.000000 0.000000 0.000014 0.000007 0.000001 156.183838
32 156.183838 0.000000 0.000000 0.000014 0.000007 0.000001 156.183838
[L_front_hand01_01]
31 86.095154 20.947098 -0.655860 -0.366594 -0.477154 75.385574 88.609184
32 86.095154 20.947098 -0.655860 -0.366594 -0.477154 75.385574 88.609184
[L_front_hand02_01]
31 86.935165 -11.437475 24.513514 154.403519 -59.888931 -61.371990 91.046425
32 86.935165 -11.437475 24.513514 154.403519 -59.888931 -61.371990 91.046425
[L_front_hand03_01]
31 86.637497 -14.123976 -20.424902 -153.913849 58.118122 -62.702866 90.126129
32 86.637497 -14.123976 -20.424902 -153.913849 58.118122 -62.702866 90.126129
[L_front_hand01_02]
31 71.020905 -0.000179 0.000030 0.000334 -0.002323 -106.379684 71.020905
32 71.020905 -0.000179 0.000030 0.000334 -0.002323 -106.379684 71.020905
[L_front_hand02_02]
31 71.020927 -0.000119 0.000060 0.000334 -0.002323 -106.379684 71.020927
32 71.020927 -0.000119 0.000060 0.000334 -0.002323 -106.379684 71.020927
[L_front_hand03_02]
31 71.020905 -0.000060 0.000060 0.000334 -0.002323 -106.379684 71.020905
32 71.020905 -0.000060 0.000060 0.000334 -0.002323 -106.379684 71.020905
[R_forearm]
31 322.776428 -0.000060 0.000030 0.213295 0.003866 -91.459335 322.776428
32 322.776428 -0.000060 0.000030 0.211210 0.033584 -99.952789 322.776428
[R_front_hand]
31 238.847015 -0.006795 2.210259 50.873802 12.697777 -29.770763 238.857239
32 238.847015 -0.006795 2.210259 42.534077 12.181965 -33.528893 238.857239
[R_weapon_bone]
31 155.664093 0.002503 -0.000030 0.003487 0.001180 -90.988930 155.664078
32 155.664093 0.002503 -0.000030 0.003487 0.001180 -90.988930 155.664078
[R_front_hand01_01]
31 87.624611 14.231146 22.918642 -154.633499 -59.950619 61.746044 91.683487
32 87.624611 14.231146 22.918642 -154.633514 -59.950634 61.746063 91.683487
[R_front_hand02_01]
31 89.356956 14.367283 -19.491137 154.602661 58.302849 63.744389 92.579636
32 89.356956 14.367283 -19.491137 154.602661 58.302849 63.744389 92.579636
[R_front_hand03_01]
31 87.286232 -22.307278 -0.143439 0.162155 -0.423168 -75.767921 90.091743
32 87.286232 -22.307278 -0.143439 0.162155 -0.423168 -75.767906 90.091743
[R_front_hand01_02]
31 71.020905 0.000060 0.000119 0.002323 -0.000334 106.381714 71.020905
32 71.020905 0.000060 0.000119 0.002323 -0.000334 106.381714 71.020905
[R_front_hand02_02]
31 71.020844 -0.000030 -0.000119 0.002323 -0.000334 106.381714 71.020836
32 71.020844 -0.000030 -0.000119 0.002323 -0.000334 106.381714 71.020836
[R_front_hand03_02]
31 71.020905 0.000000 0.000030 0.002323 -0.000334 106.381714 71.020905
32 71.020905 0.000000 0.000030 0.002323 -0.000334 106.381714 71.020905
[null_rope01_connect]
31 328.732483 0.000000 -0.000238 -164.441483 -65.070740 -89.692764 328.732483
32 328.732483 0.000000 -0.000238 -161.975525 -65.495201 -91.092140 328.732483
[Rope1_Seg01]
31 0.000000 0.000000 0.000000 15.879073 -12.702698 -95.947464 0.000000
32 0.000000 0.000000 0.000000 19.173481 -13.035243 -98.757187 0.000000
[Rope1_Seg02]
31 139.999863 -0.000179 0.000000 6.391425 4.829055 -12.416613 139.999863
32 139.999863 -0.000179 0.000000 5.931238 4.876591 -11.777946 139.999863
[Rope1_Seg03]
31 139.999924 0.000060 -0.000060 67.578156 6.996483 -29.853804 139.999924
32 139.999924 0.000060 -0.000060 65.874916 7.330588 -28.507574 139.999924
[Rope1_Seg04]
31 139.999924 -0.000060 -0.000119 63.660473 -30.254955 -21.007008 139.999924
32 139.999924 -0.000060 -0.000119 68.226822 -28.809721 -22.849079 139.999924
[Rope1_Seg05]
31 139.999832 0.000119 -0.000060 7.345057 -20.832195 6.248365 139.999832
32 139.999832 0.000119 -0.000060 9.846935 -26.065212 5.869694 139.999832
[Rope1_Seg06]
31 139.999954 0.000119 -0.000060 2.472465 -27.029547 8.488142 139.999954
32 139.999954 0.000119 -0.000060 0.524374 -31.300203 11.177904 139.999954
[Rope1_Seg07]
31 139.999985 0.000060 0.000000 -1.328123 -15.854789 7.062129 139.999985
32 139.999985 0.000060 0.000000 -2.037780 -14.882433 7.036150 139.999985
[Rope1_Seg09]
31 121.602913 0.000119 -0.000089 -89.793175 -1.359789 0.847147 121.602913
32 121.602913 0.000119 -0.000089 -89.793175 -1.359789 0.847147 121.602913
[L_mid_hand01]
31 103.859421 1.038730 8.195221 114.520287 -53.310486 -20.623234 104.187431
32 103.859421 1.038730 8.195221 114.520287 -53.310486 -20.623234 104.187431
[L_mid_hand02]
31 105.572853 -4.139662 -10.864139 -155.067673 38.166618 -52.448807 106.211075
32 105.572853 -4.139662 -10.864139 -155.067673 38.166626 -52.448818 106.211075
[L_mid_hand03]
31 104.641464 17.579376 -3.913581 -10.970130 15.317461 57.626949 106.179977
32 104.641464 17.579376 -3.913581 -10.970130 15.317461 57.626949 106.179977
[null_rope02_connect]
31 328.732849 0.000179 -0.000119 -78.626266 33.485809 36.695839 328.732849
32 328.732849 0.000179 -0.000119 -79.677986 38.290356 30.601376 328.732849
[Rope2_Seg01]
31 0.000039 -0.000466 0.000124 -28.343504 -14.332039 -0.380587 0.000484
32 0.000042 -0.000487 0.000128 -25.894907 -14.001935 -4.046607 0.000505
[Rope2_Seg02]
31 139.999741 -0.000060 -0.000119 -11.873149 7.631715 15.940403 139.999756
32 139.999741 -0.000060 -0.000119 -12.727766 8.994322 13.490593 139.999756
[Rope2_Seg03]
31 140.000107 0.000030 0.000000 -10.078111 2.674206 17.415955 140.000107
32 140.000107 0.000030 0.000000 -10.739359 3.448949 13.977580 140.000107
[Rope2_Seg04]
31 139.999802 0.000000 -0.000060 -5.382653 -0.497131 12.437187 139.999802
32 139.999802 0.000000 -0.000060 -6.739017 1.229512 10.432730 139.999802
[Rope2_Seg05]
31 139.999985 -0.000060 0.000119 -5.869484 4.834897 16.021225 139.999985
32 139.999985 -0.000060 0.000119 -9.921336 7.793951 15.006709 139.999985
[Rope2_Seg06]
31 139.999893 -0.000030 -0.000119 -6.259904 6.251965 23.852272 139.999893
32 139.999893 -0.000030 -0.000119 -11.331442 6.949473 20.523508 139.999893
[Rope2_Seg07]
31 139.999893 0.000060 -0.000060 -2.939443 1.176411 16.079363 139.999893
32 139.999893 0.000060 -0.000060 -6.273901 0.937524 14.627308 139.999893
[Rope2_Seg09]
31 121.338966 0.000089 -0.000060 136.879395 0.546403 -1.506368 121.338966
32 121.338966 0.000089 -0.000060 136.879395 0.546403 -1.506368 121.338966
[R_mid_hand01]
31 104.680779 11.144459 -10.335981 -39.248650 29.171114 33.551922 105.778534
32 104.680779 11.144459 -10.335981 -39.248650 29.171114 33.551922 105.778534
[R_mid_hand02]
31 104.070427 2.443552 8.231699 71.586517 -38.253605 12.182658 104.424065
32 104.070427 2.443552 8.231699 71.586517 -38.253605 12.182658 104.424065
[R_mid_hand03]
31 106.028137 -11.221827 -5.996406 -168.987167 11.419018 -42.774643 106.788818
32 106.028137 -11.221827 -5.996406 -168.987167 11.419018 -42.774643 106.788818
[spine02]
31 129.756927 0.001550 0.000119 0.084033 -11.158654 -6.848262 129.756927
32 129.756927 0.001550 0.000119 0.165511 -10.191942 -7.685266 129.756927
[spine03]
31 78.593704 0.085883 -5.099905 1.659465 4.018247 13.028484 78.759041
32 78.596672 0.085232 -5.071202 1.696666 3.979774 13.578559 78.760155
[pelvis]
31 169.435242 0.051022 0.000000 -0.057060 -0.223640 11.791098 169.435257
32 169.435242 0.051022 0.000000 -0.057743 -0.216013 12.121938 169.435257
[null_rope03_connect]
31 -1.257226 -2.466202 137.391083 107.490822 -38.694706 -21.198559 137.418976
32 -1.257226 -2.466202 137.391083 108.324181 -43.808067 -21.769674 137.418976
[null_rope04_connect]
31 -1.259640 -2.480268 -137.844437 107.490822 -38.694706 -21.198559 137.872513
32 -1.259640 -2.480268 -137.844437 108.324181 -43.808067 -21.769674 137.872513
[Rope3_Seg01]
31 -0.000021 -0.000502 0.000000 125.610146 -71.604904 10.210361 0.000503
32 -0.000021 -0.000518 0.000000 139.594681 -68.672447 -1.331955 0.000518
[Rope3_Seg02]
31 139.999924 -0.000119 0.000060 -4.541404 2.575850 -6.728382 139.999924
32 139.999924 -0.000119 0.000060 -3.847863 0.594690 -7.282687 139.999924
[Rope3_Seg03]
31 139.999924 -0.000119 0.000119 -10.768135 5.496015 -11.689442 139.999924
32 139.999924 -0.000119 0.000119 -11.579731 2.066899 -14.043356 139.999924
[Rope3_Seg04]
31 139.999924 0.000119 0.000000 -28.814425 12.803877 -21.242275 139.999924
32 139.999924 0.000119 0.000000 -43.761612 8.815821 -26.364912 139.999924
[Rope3_Seg05]
31 139.999924 -0.000238 0.000060 -28.598835 23.226904 -13.295440 139.999924
32 139.999924 -0.000238 0.000060 -55.958984 38.584053 -24.608103 139.999924
[Rope3_Seg06]
31 139.999893 -0.000119 -0.000060 -8.116928 47.440960 10.725381 139.999893
32 139.999893 -0.000119 -0.000060 10.344973 54.437641 31.086859 139.999893
[Rope3_Seg07]
31 139.999771 0.000060 -0.000119 8.594283 31.186838 14.260835 139.999771
32 139.999771 0.000060 -0.000119 4.191818 12.616777 6.248476 139.999771
[Rope3_Seg08]
31 139.999985 -0.000060 0.000000 4.186453 9.136344 2.674860 139.999985
32 139.999985 -0.000060 0.000000 2.130584 4.391750 1.815992 139.999985
[Rope3_Seg09]
31 90.185997 -0.000179 -0.000060 159.792526 -1.358243 -0.846482 90.185997
32 90.185997 -0.000179 -0.000060 159.792526 -1.358243 -0.846482 90.185997
[R_rear_hand01]
31 103.366196 -6.073594 -10.757982 -177.714203 24.565960 -73.910950 104.101845
32 103.366196 -6.073594 -10.757982 -177.714203 24.565960 -73.910950 104.101845
[R_rear_hand02]
31 100.509819 12.039542 -7.992327 -12.874827 36.868492 72.167221 101.543350
32 100.509819 12.039542 -7.992327 -12.874829 36.868488 72.167213 101.543350
[R_rear_hand03]
31 101.539970 5.215704 5.435467 71.484573 -71.816597 21.513800 101.819031
32 101.539970 5.215704 5.435467 71.484581 -71.816628 21.513813 101.819031
[Rope4_Seg01]
31 -0.000004 -0.000509 -0.000153 59.647980 -29.922308 -126.024696 0.000532
32 -0.000003 -0.000524 -0.000153 58.121372 -27.006424 -126.114502 0.000546
[Rope4_Seg02]
31 139.999985 0.000060 0.000119 4.232568 7.299998 13.527278 139.999985
32 139.999985 0.000060 0.000119 4.261147 8.514461 14.114116 139.999985
[Rope4_Seg03]
31 139.999924 0.000000 -0.000238 2.632640 9.942380 15.911505 139.999924
32 139.999924 0.000000 -0.000238 2.110242 9.457871 13.938128 139.999924
[Rope4_Seg04]
31 139.999985 0.000000 0.000119 0.072596 8.384086 11.740539 139.999985
32 139.999985 0.000000 0.000119 0.040835 6.601759 9.362441 139.999985
[Rope4_Seg05]
31 139.999802 -0.000060 -0.000119 -2.599229 8.313472 14.990037 139.999802
32 139.999802 -0.000060 -0.000119 -1.327395 8.874715 12.599711 139.999802
[Rope4_Seg06]
31 139.999924 0.000000 0.000060 -12.086013 9.901845 23.937382 139.999924
32 139.999924 0.000000 0.000060 -6.847550 12.731369 19.953182 139.999924
[Rope4_Seg07]
31 139.999802 0.000000 0.000000 -17.421577 2.855059 16.821217 139.999802
32 139.999802 0.000000 0.000000 -12.718174 6.511481 14.612669 139.999802
[Rope4_Seg08]
31 139.999924 0.000000 0.000119 -13.371943 -1.165282 8.516797 139.999924
32 139.999924 0.000000 0.000119 -13.021955 1.602750 8.459250 139.999924
[Rope4_Seg09]
31 90.185791 0.000060 0.000060 -135.617828 2.228885 0.850567 90.185791
32 90.185791 0.000060 0.000060 -135.617828 2.228885 0.850567 90.185791
[L_rear_hand01]
31 101.696655 -8.392275 -7.654577 -19.915020 -33.950905 119.950104 102.329041
32 101.696655 -8.392275 -7.654577 -19.915020 -33.950905 119.950104 102.329041
[L_rear_hand02]
31 102.726799 -1.568258 5.773216 77.862221 61.878510 165.399200 102.900848
32 102.726799 -1.568258 5.773216 77.862221 61.878510 165.399200 102.900848
[L_rear_hand03]
31 104.552910 9.721220 -10.420293 -173.099182 -23.740307 -117.327896 105.519653
32 104.552910 9.721220 -10.420293 -173.099182 -23.740307 -117.327896 105.519653
